<?xml version="1.0" standalone="no"?>
<!DOCTYPE svg PUBLIC "-//W3C//DTD SVG 20010904//EN"
 "http://www.w3.org/TR/2001/REC-SVG-20010904/DTD/svg10.dtd">
<svg version="1.0" xmlns="http://www.w3.org/2000/svg"
 width="550.000000pt" height="550.000000pt" viewBox="0 0 550.000000 550.000000"
 preserveAspectRatio="xMidYMid meet">
<metadata>
Created by potrace 1.11, written by Peter Selinger 2001-2013
</metadata>
<g transform="translate(0.000000,550.000000) scale(0.100000,-0.100000)"
fill="#000000" stroke="none">
<path d="M0 2750 l0 -2750 2750 0 2750 0 0 2750 0 2750 -2750 0 -2750 0 0
-2750z m4757 1558 c150 -150 273 -278 273 -286 0 -17 -457 -475 -470 -470 -16
5 -550 541 -550 552 0 10 460 476 470 476 2 0 127 -123 277 -272z m-925 -525
c38 -37 68 -74 68 -83 0 -8 -400 -416 -890 -905 -489 -489 -890 -897 -890
-905 0 -8 30 -44 66 -79 l66 -64 897 897 c493 493 903 896 912 896 15 0 249
-230 249 -245 0 -4 -532 -540 -1183 -1190 -1078 -1078 -1188 -1186 -1243
-1210 -66 -30 -149 -68 -209 -96 -45 -20 -164 -74 -240 -109 -27 -12 -72 -33
-100 -45 -27 -13 -75 -34 -105 -48 -169 -77 -219 -99 -252 -117 -59 -30 -58
-15 9 130 14 30 33 73 43 95 51 113 65 145 92 204 16 36 36 81 45 100 26 61
50 113 87 193 20 43 36 80 36 82 0 2 18 43 40 90 22 47 40 89 40 93 0 12 2373
2383 2385 2383 5 0 40 -30 77 -67z"/>
<path d="M1744 1518 c-75 -76 -109 -119 -129 -163 -39 -87 -66 -147 -76 -170
-4 -11 -24 -55 -44 -99 -20 -43 -33 -81 -31 -84 3 -2 29 7 58 21 29 14 78 36
108 50 132 60 217 99 236 108 12 6 66 56 120 110 107 107 110 119 31 119 -67
0 -127 20 -131 44 -3 11 -10 54 -16 94 -7 39 -15 72 -19 72 -3 0 -52 -46 -107
-102z"/>
</g>
</svg>
